<?xml version="1.0" standalone="no"?>
<!DOCTYPE svg PUBLIC "-//W3C//DTD SVG 20010904//EN"
 "http://www.w3.org/TR/2001/REC-SVG-20010904/DTD/svg10.dtd">
<svg version="1.0" xmlns="http://www.w3.org/2000/svg"
 width="256.000000pt" height="256.000000pt" viewBox="0 0 256.000000 256.000000"
 preserveAspectRatio="xMidYMid meet">
<metadata>
Created by potrace 1.11, written by Peter Selinger 2001-2013
</metadata>
<g transform="translate(0.000000,256.000000) scale(0.100000,-0.100000)"
fill="#000000" stroke="none">
<path d="M1200 2553 c-132 -22 -271 -130 -331 -258 -107 -227 -16 -489 208
-601 64 -32 70 -38 130 -141 24 -39 47 -74 53 -78 24 -15 52 12 106 98 52 86
60 94 118 121 80 39 166 125 205 206 82 169 56 357 -71 511 -38 46 -129 102
-208 129 -36 12 -166 20 -210 13z"/>
<path d="M1740 1435 c-179 -58 -356 -115 -393 -127 l-68 -21 -127 41 c-70 22
-240 77 -378 121 -138 45 -259 81 -270 81 -29 0 -44 -19 -44 -57 l0 -33 -44 6
c-38 6 -46 4 -56 -15 -8 -16 -11 -169 -9 -567 2 -618 -5 -570 89 -598 30 -10
109 -34 175 -56 66 -21 214 -68 330 -105 116 -37 229 -73 252 -81 72 -23 96
-24 153 -5 53 19 387 126 615 198 61 19 135 42 165 52 36 11 59 25 66 40 16
32 19 1093 3 1122 -9 19 -17 21 -55 15 l-44 -6 0 34 c0 27 -21 69 -33 66 -1
-1 -148 -48 -327 -105z"/>
</g>
</svg>
